<svg width="396" height="106.09393487285628" viewBox="0 0 300 80.37419308549718" class="css-1j8o68f"><defs id="SvgjsDefs1314"></defs><g id="SvgjsG1315" featurekey="UFHKJ9-0" transform="matrix(0.9977873278870242,0,0,0.9977873278870242,-9.976006310012178,-9.426670230591588)" fill="#1D2D47"><g xmlns="http://www.w3.org/2000/svg"><path d="M88.612793,17.1132812c0.5375977-1.4042969,0.4887695-2.9365234-0.1376953-4.3139648   c-0.6240234-1.3720703-1.7480469-2.4267578-3.1640625-2.96875s-2.9575195-0.5078125-4.3374023,0.0966797   c-1.3862305,0.6064453-2.4458008,1.7143555-2.9838867,3.1196289C77.8891602,13.3100586,77.809082,13.5805664,77.75,13.8569336   c-2.4672852,0.0727539-4.6762695,1.5917969-5.5742188,3.9355469c-0.496582,1.2973633-0.5273438,2.7270508-0.105957,4.0463867   c-1.1948242,0.7006836-2.1264648,1.7851562-2.6235352,3.0830078c-0.5893555,1.5390625-0.5361328,3.21875,0.1508789,4.7285156   c0.684082,1.5043945,1.9165039,2.6611328,3.4697266,3.2558594c0.7077637,0.2706909,1.4443359,0.397583,2.1831055,0.4042358   l-1.1106567,2.9005737l-1.5675659-0.6002197c-1.2412109-0.4746094-2.6323242-0.3950195-3.8144531,0.2226562   c-1.1904297,0.6210938-2.059082,1.7260742-2.3657227,2.9697266l-1.5911255,5.0039062h-0.5368652   c-0.3278809-4.8967285-4.2723999-8.8079224-9.1825562-9.0852051V23.0390625c0-2.1455078-1.7446289-3.890625-3.8886719-3.890625   h-2.6347656c-2.144043,0-3.8886719,1.7451172-3.8886719,3.890625V34.744751   c-4.7028809,0.4804077-8.4179077,4.3138428-8.7357788,9.0623779h-0.5604858l-1.5733643-4.9414062   c-0.3242188-1.3061523-1.1928711-2.4111328-2.3837891-3.0327148c-1.1821289-0.6166992-2.5727539-0.6972656-3.8134766-0.222168   l-1.5680542,0.6002808l-1.1106567-2.9008179c0.7394409-0.0064697,1.4755859-0.1331787,2.1831055-0.4040527   c3.2114258-1.2299805,4.8354492-4.8115234,3.6206055-7.9848633c-0.4970703-1.2978516-1.4287109-2.3818359-2.6235352-3.0825195   c0.4213867-1.3188477,0.390625-2.7485352-0.105957-4.0463867c-0.8974609-2.34375-3.105957-3.862793-5.5737305-3.9355469   c-0.059082-0.2763672-0.1396484-0.5473633-0.2402344-0.8105469c-0.5380859-1.4047852-1.5976562-2.5126953-2.9838867-3.1191406   c-1.3808594-0.6040039-2.9223633-0.6381836-4.3374023-0.0966797c-1.4160156,0.5419922-2.5400391,1.5966797-3.1640625,2.96875   c-0.6264648,1.3774414-0.675293,2.909668-0.1376953,4.3139648c0.1010742,0.2631836,0.222168,0.5185547,0.3632812,0.7641602   c-1.7880859,1.7021484-2.4174805,4.3076172-1.5205078,6.6513672c0.4970703,1.2978516,1.4287109,2.3823242,2.6240234,3.0830078   c-0.421875,1.3193359-0.3911133,2.7490234,0.105957,4.0463867c0.5893555,1.5395508,1.7509766,2.7539062,3.2700195,3.4189453   c0.8007812,0.3505859,1.6499023,0.5258789,2.5019531,0.5258789c0.7602539,0,1.5229492-0.1396484,2.2548828-0.4199219   c0.7077637-0.2711792,1.3406982-0.668396,1.8953247-1.1572876l1.1104736,2.9003906l-1.5678101,0.6001587   c-1.2416992,0.4760742-2.222168,1.4648438-2.6899414,2.7138672c-0.4416504,1.1785889-0.3705444,2.4765625,0.1340942,3.5668945H11   c-0.5522461,0-1,0.4477539-1,1v9.1308594c0,0.5522461,0.4477539,1,1,1h1.8840942l6.1735229,34.2392578   C19.1430664,89.6538086,19.5576172,90,20.0415039,90H79.875c0.4775391,0,0.8886719-0.3378906,0.980957-0.8066406   l6.7492676-34.2553711H89c0.5522461,0,1-0.4477539,1-1v-9.1308594c0-0.5522461-0.4477539-1-1-1h-8.8733521   c0.5072632-1.1259155,0.5744019-2.4046021,0.1389771-3.5668945c-0.4677734-1.2485352-1.4482422-2.237793-2.690918-2.7138672   l-1.5673218-0.6000977l1.1105957-2.9004517c0.5546875,0.4888916,1.187439,0.8861084,1.8952026,1.1572876   c0.7392578,0.2827148,1.4990234,0.4169922,2.2456055,0.4169922c2.496582,0,4.8461914-1.4995117,5.7817383-3.9418945   c0.496582-1.2973633,0.5273438-2.7270508,0.105957-4.0463867c1.1948242-0.7006836,2.1264648-1.7851562,2.6235352-3.0825195   c0.8974609-2.34375,0.2680664-4.949707-1.5200195-6.6518555C88.390625,17.6318359,88.5117188,17.3769531,88.612793,17.1132812z    M20.4453125,33.3149414c-1.0600586,0.40625-2.2099609,0.3808594-3.2397461-0.0698242   c-1.0249023-0.4487305-1.8081055-1.2661133-2.2045898-2.3022461c-0.4155273-1.0854492-0.3442383-2.3120117,0.1967773-3.3647461   c0.1303711-0.2529297,0.1464844-0.5488281,0.0449219-0.8144531c-0.1020508-0.265625-0.3115234-0.4755859-0.5771484-0.5766602   c-1.105957-0.4223633-1.9785156-1.2871094-2.394043-2.3730469c-0.6865234-1.7924805-0.0415039-3.8168945,1.5683594-4.9228516   c0.2324219-0.1601562,0.3867188-0.4106445,0.4248047-0.690918c0.0375977-0.2797852-0.0449219-0.5625-0.2270508-0.7783203   c-0.2636719-0.3125-0.46875-0.6567383-0.6088867-1.0234375c-0.3452148-0.9008789-0.3129883-1.8847656,0.0898438-2.7709961   c0.4052734-0.890625,1.1362305-1.5756836,2.0585938-1.9287109c0.4360352-0.1669922,0.8891602-0.25,1.3408203-0.25   c0.5043945,0,1.0068359,0.1035156,1.4799805,0.3105469c0.8916016,0.390625,1.5727539,1.1015625,1.9179688,2.0024414   c0.140625,0.3671875,0.2177734,0.7597656,0.2299805,1.1669922c0.0083008,0.2827148,0.1357422,0.5483398,0.3505859,0.7314453   s0.4990234,0.2636719,0.777832,0.230957c1.9399414-0.2504883,3.7695312,0.8242188,4.4550781,2.6162109   c0.4160156,1.0864258,0.3442383,2.3129883-0.1962891,3.3652344c-0.1303711,0.2529297-0.1464844,0.5488281-0.0449219,0.8144531   c0.1020508,0.265625,0.3115234,0.4755859,0.5771484,0.5766602c1.121582,0.4282227,1.972168,1.2709961,2.394043,2.3730469   c0.8203125,2.1430664-0.2866211,4.5664062-2.4677734,5.4013672c-0.7279053,0.2792969-1.5,0.3413086-2.2588501,0.2072144   L19.578125,19.3496094c-0.1977539-0.5161133-0.7768555-0.7729492-1.2915039-0.5766602   c-0.5161133,0.1977539-0.7739258,0.7758789-0.5766602,1.2915039l4.5546875,11.8959961   C21.7896118,32.5664673,21.1739502,33.0360718,20.4453125,33.3149414z M62.2636719,43.8071289h-7.1826172v-7.0852661   C58.8891602,36.9923096,61.9440918,40.0125122,62.2636719,43.8071289z M50,59.1347656   c4.9326172,0,8.9453125,4.015625,8.9453125,8.9516602c0,4.9355469-4.0126953,8.9511719-8.9453125,8.9511719   s-8.9453125-4.015625-8.9453125-8.9511719C41.0546875,63.1503906,45.0673828,59.1347656,50,59.1347656z M46.6689453,23.0390625   c0-1.0424805,0.847168-1.890625,1.8886719-1.890625h2.6347656c1.0415039,0,1.8886719,0.8481445,1.8886719,1.890625v34.5450439   C52.1026001,57.2961426,51.0703735,57.1347656,50,57.1347656c-1.1615601,0-2.2798462,0.1855469-3.3310547,0.522522V23.0390625z    M44.6689453,36.765686v7.0414429h-6.7358398C38.2400513,40.1620483,41.0710449,37.2312012,44.6689453,36.765686z    M21.9262695,43.1499023c-0.3623047-0.6821289-0.4155273-1.4873047-0.1455078-2.2084961   c0.2709961-0.7226562,0.8154297-1.2724609,1.5327148-1.546875l5.0039062-1.9155273   c0.7182617-0.2749023,1.4892578-0.2290039,2.1733398,0.1274414c0.6826172,0.355957,1.1811523,0.9907227,1.3847656,1.8032227   l1.3982544,4.3974609H22.2246094L21.9262695,43.1499023z M12,45.8071289h32.6689453v7.1308594H12V45.8071289z M79.0527344,88   h-58.175293l-5.9616699-33.0620117h29.7531738v3.5925293c-3.3451538,1.8759766-5.6142578,5.4537964-5.6142578,9.5559082   C39.0546875,74.125,43.9648438,79.0375977,50,79.0375977S60.9453125,74.125,60.9453125,68.0864258   c0-4.2034912-2.3824463-7.8563232-5.8642578-9.6914673v-3.4569702h30.4860229L79.0527344,88z M88,52.9379883H55.0810547v-7.1308594   H88V52.9379883z M78.3925781,40.9418945c0.2705078,0.7211914,0.2172852,1.5258789-0.1738281,2.265625l-0.270752,0.5996094   H66.8991699l1.4162598-4.4599609c0.1860352-0.75,0.6845703-1.3842773,1.3671875-1.7407227   c0.6855469-0.3569336,1.456543-0.4023438,2.1743164-0.1274414l5.0029297,1.9155273   C77.5776367,39.6694336,78.1220703,40.21875,78.3925781,40.9418945z M87.9018555,23.8139648   c-0.4155273,1.0859375-1.2880859,1.9506836-2.3935547,2.3730469c-0.265625,0.1015625-0.4750977,0.3110352-0.5771484,0.5766602   c-0.1015625,0.2651367-0.0854492,0.5615234,0.0444336,0.8144531c0.5410156,1.0527344,0.612793,2.2792969,0.1967773,3.3652344   c-0.8198242,2.1425781-3.2612305,3.206543-5.4443359,2.371582c-0.7282715-0.2788696-1.3438721-0.7485352-1.8191528-1.3545532   l4.5549927-11.8959351c0.1972656-0.515625-0.0605469-1.09375-0.5766602-1.2915039   c-0.5136719-0.1958008-1.0932617,0.0605469-1.2915039,0.5766602L76.0409546,31.244751   c-0.758728,0.1335449-1.5304565,0.0722656-2.2592163-0.206665c-1.059082-0.4052734-1.8989258-1.1923828-2.3642578-2.2158203   c-0.4633789-1.0185547-0.5-2.1499023-0.1030273-3.1855469c0.4155273-1.0859375,1.2880859-1.9506836,2.3935547-2.3730469   c0.265625-0.1015625,0.4750977-0.3110352,0.5771484-0.5766602c0.1015625-0.2651367,0.0854492-0.5615234-0.0444336-0.8144531   c-0.5410156-1.0527344-0.612793-2.2792969-0.1967773-3.3647461c0.6860352-1.7924805,2.5136719-2.8696289,4.4550781-2.6166992   c0.2797852,0.0332031,0.5620117-0.0478516,0.7773438-0.2304688c0.2148438-0.1831055,0.3427734-0.4487305,0.3510742-0.730957   c0.012207-0.4082031,0.0898438-0.8012695,0.2304688-1.168457c0.3447266-0.9003906,1.0258789-1.6113281,1.9174805-2.0019531   c0.8964844-0.3925781,1.8984375-0.4145508,2.8208008-0.0605469c0.9223633,0.3530273,1.6533203,1.0380859,2.0585938,1.9287109   c0.402832,0.8862305,0.4350586,1.8701172,0.0898438,2.7709961c-0.140625,0.3671875-0.3452148,0.7119141-0.6083984,1.0234375   c-0.1821289,0.2158203-0.2646484,0.4985352-0.2270508,0.7783203c0.0380859,0.2797852,0.1918945,0.5307617,0.4248047,0.690918   C87.9438477,19.9970703,88.5883789,22.0214844,87.9018555,23.8139648z"></path><path d="M50,73.6132812c3.0478516,0,5.5273438-2.4804688,5.5273438-5.5297852S53.0478516,62.5532227,50,62.5532227   s-5.5273438,2.480957-5.5273438,5.5302734S46.9521484,73.6132812,50,73.6132812z M50,64.5532227   c1.9448242,0,3.5273438,1.5834961,3.5273438,3.5302734c0,1.9462891-1.5825195,3.5297852-3.5273438,3.5297852   s-3.5273438-1.5834961-3.5273438-3.5297852C46.4726562,66.1367188,48.0551758,64.5532227,50,64.5532227z"></path></g></g><g id="SvgjsG1316" featurekey="XAPJzK-0" transform="matrix(5.021911379578313,0,0,5.021911379578313,92.96932837893148,-24.99620258948053)" fill="#1D2D47"><path d="M8.9 18.86 c0.42 1 -1.82 1.48 -2.08 0.88 l-0.12 -0.28 c-0.66 -1.58 -1.38 -3.38 -2.04 -4.98 l-0.98 0 l0 5.08 c0 0.6 -2.28 0.6 -2.28 0 l0 -12.3 c0 -0.94 0.02 -1.24 1.42 -1.26 l2.06 0 c0.72 0 1.52 0.02 2.14 0.42 c1.36 0.86 1.78 2.38 1.76 3.92 c-0.02 1.28 -0.2 2.56 -1.46 3.5 c-0.14 0.08 -0.26 0.16 -0.38 0.24 c0.64 1.52 1.34 3.26 1.96 4.78 z M3.68 12.2 l1.72 0 c0.92 0 1.06 -1.12 1.1 -1.44 c0.02 -0.22 0.02 -1.02 -0.02 -1.4 c-0.08 -0.74 -0.36 -1.12 -1.28 -1.12 l-1.52 0 l0 3.96 z M18.3 8.82 c0.06 0.22 0.02 8.34 -0.06 8.64 c-0.36 1.54 -1.44 2.54 -3.14 2.54 l-0.52 0 c-1.68 0 -2.76 -1 -3.14 -2.54 c-0.08 -0.3 -0.1 -8.42 -0.06 -8.64 c0.28 -1.68 1.32 -2.78 3.2 -2.82 l0.52 0 c1.9 0.04 2.92 1.14 3.2 2.82 z M14.28 17.6 c0.34 0.18 0.78 0.18 1.12 0 c0.58 -0.28 0.68 -0.98 0.7 -1.46 l0 -6.26 c0 -0.48 -0.12 -1.18 -0.7 -1.46 c-0.34 -0.18 -0.78 -0.18 -1.12 0 c-0.58 0.28 -0.7 0.98 -0.7 1.46 l0 6.26 c0.02 0.48 0.12 1.18 0.7 1.46 z M32.120000000000005 6.76 l0 12.8 c0 0.6 -2.26 0.6 -2.26 0 l0 -6.64 c-2.32 6.46 -2.36 6.54 -2.4 6.62 c-0.26 0.6 -1.78 0.6 -2.04 0 c-0.04 -0.08 -0.08 -0.16 -2.42 -6.7 l0 6.72 c0 0.6 -2.28 0.6 -2.28 0 l0 -12.76 l0 -0.04 c0 -0.98 2.02 -0.94 2.22 -0.4 l3.5 9.2 l3.44 -9.2 c0.2 -0.54 2.24 -0.6 2.24 0.4 z M41.220000000000006 16.42 c0.04 0.68 -0.14 1.44 -0.52 2 c-0.18 0.26 -0.38 0.52 -0.64 0.74 c-0.16 0.12 -0.32 0.26 -0.5 0.36 s-0.38 0.18 -0.56 0.26 c-0.6 0.26 -1.32 0.28 -1.94 0.12 c-0.32 -0.08 -0.62 -0.2 -0.9 -0.38 c-0.26 -0.16 -0.54 -0.36 -0.74 -0.6 c-0.22 -0.24 -0.42 -0.5 -0.56 -0.8 c-0.08 -0.18 -0.18 -0.38 -0.24 -0.58 c-0.04 -0.2 -0.1 -0.72 -0.1 -0.92 c0 -0.6 2.24 -0.6 2.24 0 c0 0.5 0.78 1.84 1.98 0.64 c0.5 -0.72 0.04 -1.54 -0.4 -2.14 c-0.68 -0.84 -1.56 -1.48 -2.28 -2.28 c-0.42 -0.46 -0.84 -0.98 -1.1 -1.56 c-0.14 -0.32 -0.26 -0.64 -0.34 -1 c-0.3 -1.66 0.22 -4.62 3.84 -4.28 c1.82 0.18 2.62 1.74 2.62 2.8 c0 0.6 -2.28 0.6 -2.28 0 c0 -0.8 -2.26 -0.9 -1.98 0.86 c0.04 0.18 0.08 0.36 0.16 0.54 c0.12 0.26 0.26 0.48 0.42 0.7 c0.2 0.26 0.4 0.48 0.64 0.7 c0.88 0.86 1.88 1.64 2.52 2.74 c0.38 0.64 0.6 1.34 0.66 2.08 z"></path></g></svg>